# xmcd
#
# Track frame offsets: 
#        150
#        19275
#        37199
#        54043
#        72973
#        88195
#        106190
#        125649
#        144503
#        160623
#        179418
#        194449
#
# Disc length: 2769 seconds
#
# Revision: 4
# Processed by: cddbd v1.5.2PL0 Copyright (c) Steve Scherf et al.
# Submitted via: ExactAudioCopy v0.99pb4
#
DISCID=a50acf0c
DTITLE=Michael Wendler - Disco
DYEAR=2005
DGENRE=Deutsche Titel
TTITLE0=Die Engel fliehn
TTITLE1=Lass uns sündigen
TTITLE2=Disco
TTITLE3=Wenn alle Stricke reißen
TTITLE4=Frauen können Luder sein
TTITLE5=Die Geier kreisen schon
TTITLE6=Es ist nicht alles Gold
TTITLE7=Suche treuen Löwen 2005
TTITLE8=Keine Panik
TTITLE9=Rette sich wer kann
TTITLE10=Helden sterben einsam
TTITLE11=Darüber stehn
EXTD=
EXTT0=
EXTT1=
EXTT2=
EXTT3=
EXTT4=
EXTT5=
EXTT6=
EXTT7=
EXTT8=
EXTT9=
EXTT10=
EXTT11=
PLAYORDER=
